<svg width="14" height="24" viewBox="0 0 14 24" fill="none" xmlns="http://www.w3.org/2000/svg">
<path d="M5.864 23.262V21.26C4.18267 21.0693 2.81333 20.48 1.756 19.492C0.698667 18.504 0.152667 17.178 0.118 15.514H3.628C3.66267 16.2073 3.87067 16.814 4.252 17.334C4.65067 17.854 5.188 18.2093 5.864 18.4V12.914C5.708 12.862 5.54333 12.81 5.37 12.758C5.214 12.706 5.04933 12.654 4.876 12.602C3.472 12.1167 2.39733 11.4927 1.652 10.73C0.924 9.96733 0.56 8.95333 0.56 7.688C0.542667 6.19733 1.028 5.00133 2.016 4.1C3.004 3.18133 4.28667 2.65267 5.864 2.514V0.407999H7.606V2.54C9.166 2.696 10.4227 3.242 11.376 4.178C12.3467 5.09667 12.858 6.284 12.91 7.74H9.348C9.33067 7.23733 9.166 6.778 8.854 6.362C8.55933 5.92867 8.14333 5.62533 7.606 5.452V10.288C7.74467 10.34 7.88333 10.392 8.022 10.444C8.16067 10.4787 8.29933 10.522 8.438 10.574C9.33933 10.886 10.1627 11.25 10.908 11.666C11.6533 12.082 12.2513 12.6367 12.702 13.33C13.1527 14.006 13.378 14.8813 13.378 15.956C13.378 16.8573 13.1527 17.698 12.702 18.478C12.2687 19.258 11.6187 19.908 10.752 20.428C9.90267 20.9307 8.854 21.2167 7.606 21.286V23.262H5.864ZM4.044 7.454C4.044 8.00867 4.20867 8.45933 4.538 8.806C4.86733 9.13533 5.30933 9.42133 5.864 9.664V5.348C5.32667 5.452 4.88467 5.686 4.538 6.05C4.20867 6.414 4.044 6.882 4.044 7.454ZM9.842 16.19C9.842 15.4967 9.634 14.9507 9.218 14.552C8.802 14.1533 8.26467 13.8153 7.606 13.538V18.478C8.29933 18.374 8.84533 18.1227 9.244 17.724C9.64267 17.3253 9.842 16.814 9.842 16.19Z" fill="#583DFF"/>
</svg>
